<svg xmlns="http://www.w3.org/2000/svg" xmlns:xlink="http://www.w3.org/1999/xlink" xml:lang="en" height="523.84pt" width="1341.8600000000004pt" viewBox="-31.6 -433.2 1341.8600000000004 523.84"><path d="M 0.0,-216.0 L 50.625,-216.0 M 57.375,-216.0 L 108.0,-216.0" style="stroke:black;fill:none;stroke-width:2.0;stroke-dasharray:-;stroke-linecap:round;stroke-linejoin:round;" /><path d="M 57.375,-202.5 L 57.375,-229.5" style="stroke:black;fill:none;stroke-width:2.0;stroke-dasharray:-;stroke-linecap:round;stroke-linejoin:round;" /><path d="M 50.625,-209.25 L 50.625,-222.75" style="stroke:black;fill:none;stroke-width:2.0;stroke-dasharray:-;stroke-linecap:round;stroke-linejoin:round;" /><path d="M 108.0,-216.0 L 126.0,-216.0 L 144.0,-216.0" style="stroke:black;fill:none;stroke-width:2.0;stroke-dasharray:-;stroke-linecap:round;stroke-linejoin:round;" /><path d="M 144.0,-216.0 L 144.0,-225.0 L 144.0,-234.0" style="stroke:black;fill:none;stroke-width:2.0;stroke-dasharray:-;stroke-linecap:round;stroke-linejoin:round;" /><path d="M 0.0,-216.0 L -9.0,-216.0 L -18.0,-216.0" style="stroke:black;fill:none;stroke-width:2.0;stroke-dasharray:-;stroke-linecap:round;stroke-linejoin:round;" /><path d="M -18.0,-216.0 L -18.0,-201.6 L -27.0,-201.6 L -9.0,-201.6 M -24.3,-197.28000000000003 L -11.700000000000001,-197.28000000000003 M -19.8,-192.96 L -16.2,-192.96" style="stroke:black;fill:none;stroke-width:2.0;stroke-dasharray:-;stroke-linecap:round;stroke-linejoin:round;" /><path d="M 252.0,-216.0 L 406.65599999999995,-216.0 L 406.65599999999995,-414.0 L 252.0,-414.0 L 252.0,-216.0" style="stroke:black;fill:none;stroke-width:2.0;stroke-dasharray:-;stroke-linecap:round;stroke-linejoin:round;" /><path d="M 252.0,-261.0 L 216.0,-261.0" style="stroke:black;fill:none;stroke-width:2.0;stroke-dasharray:-;stroke-linecap:round;stroke-linejoin:round;" /><path d="M 252.0,-315.0 L 216.0,-315.0" style="stroke:black;fill:none;stroke-width:2.0;stroke-dasharray:-;stroke-linecap:round;stroke-linejoin:round;" /><path d="M 252.0,-369.0 L 216.0,-369.0" style="stroke:black;fill:none;stroke-width:2.0;stroke-dasharray:-;stroke-linecap:round;stroke-linejoin:round;" /><path d="M 406.65599999999995,-234.0 L 442.65599999999995,-234.0" style="stroke:black;fill:none;stroke-width:2.0;stroke-dasharray:-;stroke-linecap:round;stroke-linejoin:round;" /><path d="M 406.65599999999995,-288.0 L 442.65599999999995,-288.0" style="stroke:black;fill:none;stroke-width:2.0;stroke-dasharray:-;stroke-linecap:round;stroke-linejoin:round;" /><path d="M 406.65599999999995,-342.0 L 442.65599999999995,-342.0" style="stroke:black;fill:none;stroke-width:2.0;stroke-dasharray:-;stroke-linecap:round;stroke-linejoin:round;" /><path d="M 406.65599999999995,-396.0 L 442.65599999999995,-396.0" style="stroke:black;fill:none;stroke-width:2.0;stroke-dasharray:-;stroke-linecap:round;stroke-linejoin:round;" /><path d="M 216.0,-261.0 L 189.0,-261.0 L 162.0,-261.0" style="stroke:black;fill:none;stroke-width:2.0;stroke-dasharray:-;stroke-linecap:round;stroke-linejoin:round;" /><path d="M 216.0,-315.0 L 189.0,-315.0 L 162.0,-315.0" style="stroke:black;fill:none;stroke-width:2.0;stroke-dasharray:-;stroke-linecap:round;stroke-linejoin:round;" /><path d="M 216.0,-369.0 L 198.0,-369.0 L 180.0,-369.0" style="stroke:black;fill:none;stroke-width:2.0;stroke-dasharray:-;stroke-linecap:round;stroke-linejoin:round;" /><path d="M 180.0,-369.0 L 180.0,-354.59999999999997 L 171.0,-354.59999999999997 L 189.0,-354.59999999999997 M 173.70000000000002,-350.28000000000003 L 186.29999999999998,-350.28000000000003 M 178.20000000000002,-345.96 L 181.79999999999998,-345.96" style="stroke:black;fill:none;stroke-width:2.0;stroke-dasharray:-;stroke-linecap:round;stroke-linejoin:round;" /><path d="M 442.65599999999995,-288.0 L 460.65599999999995,-288.0 L 478.65599999999995,-288.0" style="stroke:black;fill:none;stroke-width:2.0;stroke-dasharray:-;stroke-linecap:round;stroke-linejoin:round;" /><path d="M 478.65599999999995,-288.0 L 514.656,-288.0 L 517.656,-297.0 L 523.656,-279.0 L 529.656,-297.0 L 535.656,-279.0 L 541.656,-297.0 L 547.656,-279.0 L 550.656,-288.0 L 586.656,-288.0" style="stroke:black;fill:none;stroke-width:2.0;stroke-dasharray:-;stroke-linecap:round;stroke-linejoin:round;" /><path d="M 586.656,-288.0 L 599.856,-288.0" style="stroke:black;fill:none;stroke-width:2.0;stroke-dasharray:-;stroke-linecap:round;stroke-linejoin:round;" /><path d="M 599.856,-301.20000000000005 L 599.856,-274.8" style="stroke:black;fill:none;stroke-width:2.0;stroke-dasharray:-;stroke-linecap:round;stroke-linejoin:round;" /><path d="M 599.856,-294.6 L 613.7159999999999,-306.48 L 613.7159999999999,-313.08000000000004" style="stroke:black;fill:none;stroke-width:2.0;stroke-dasharray:-;stroke-linecap:round;stroke-linejoin:round;" /><path d="M 599.856,-281.4 L 613.7159999999999,-269.52 L 613.7159999999999,-262.92" style="stroke:black;fill:none;stroke-width:2.0;stroke-dasharray:-;stroke-linecap:round;stroke-linejoin:round;" /><path d="M 599.856,-281.4 L 606.8826905787123,-275.3771223611037" style="stroke:black;fill:none;stroke-width:2.0;stroke-dasharray:-;stroke-linecap:round;stroke-linejoin:round;" /><path d="M 612.1974867952694 -270.82158274691193 L 604.5398416342708 -272.64379859258867 L 609.2255395231538 -278.11044612961877 Z" style="stroke:black;fill:black;stroke-linecap:butt;stroke-linejoin:miter;" /><path d="M 613.7159999999999,-313.08000000000004 L 613.7159999999999,-340.08000000000004 L 613.7159999999999,-367.08000000000004" style="stroke:black;fill:none;stroke-width:2.0;stroke-dasharray:-;stroke-linecap:round;stroke-linejoin:round;" /><path d="M 613.7159999999999,-262.92 L 613.7159999999999,-248.52 L 604.7159999999999,-248.52 L 622.7159999999999,-248.52 M 607.4159999999999,-244.2 L 620.016,-244.2 M 611.9159999999999,-239.88000000000002 L 615.516,-239.88000000000002" style="stroke:black;fill:none;stroke-width:2.0;stroke-dasharray:-;stroke-linecap:round;stroke-linejoin:round;" /><path d="M 144.0,-0.0 L 252.0,-0.0 L 252.0,-90.0 L 144.0,-90.0 L 144.0,-0.0" style="stroke:black;fill:none;stroke-width:2.0;stroke-dasharray:-;stroke-linecap:round;stroke-linejoin:round;" /><path d="M 144.0,-18.0 L 118.8,-18.0" style="stroke:black;fill:none;stroke-width:2.0;stroke-dasharray:-;stroke-linecap:round;stroke-linejoin:round;" /><path d="M 144.0,-72.0 L 118.8,-72.0" style="stroke:black;fill:none;stroke-width:2.0;stroke-dasharray:-;stroke-linecap:round;stroke-linejoin:round;" /><path d="M 252.0,-45.0 L 277.2,-45.0" style="stroke:black;fill:none;stroke-width:2.0;stroke-dasharray:-;stroke-linecap:round;stroke-linejoin:round;" /><path d="M 118.8,-18.0 L 109.8,-18.0 L 100.8,-18.000000000000004" style="stroke:black;fill:none;stroke-width:2.0;stroke-dasharray:-;stroke-linecap:round;stroke-linejoin:round;" /><path d="M 118.8,-72.0 L 109.8,-72.0 L 100.8,-72.0" style="stroke:black;fill:none;stroke-width:2.0;stroke-dasharray:-;stroke-linecap:round;stroke-linejoin:round;" /><path d="M 277.2,-45.0 L 304.2,-45.0 L 331.2,-45.0" style="stroke:black;fill:none;stroke-width:2.0;stroke-dasharray:-;stroke-linecap:round;stroke-linejoin:round;" /><path d="M 331.2,-45.0 L 331.2,-81.0 L 322.2,-83.99999999999999 L 340.2,-90.0 L 322.2,-96.0 L 340.2,-101.99999999999999 L 322.2,-108.0 L 340.2,-114.0 L 331.2,-117.0 L 331.2,-153.0" style="stroke:black;fill:none;stroke-width:2.0;stroke-dasharray:-;stroke-linecap:round;stroke-linejoin:round;" /><path d="M 331.2,-153.0 L 331.2,-162.0 L 331.2,-171.0" style="stroke:black;fill:none;stroke-width:2.0;stroke-dasharray:-;stroke-linecap:round;stroke-linejoin:round;" /><path d="M 331.2,-45.0 L 367.2,-45.0 L 403.2,-45.0" style="stroke:black;fill:none;stroke-width:2.0;stroke-dasharray:-;stroke-linecap:round;stroke-linejoin:round;" /><path d="M 504.0,-0.0 L 612.0,-0.0 L 612.0,-90.0 L 504.0,-90.0 L 504.0,-0.0" style="stroke:black;fill:none;stroke-width:2.0;stroke-dasharray:-;stroke-linecap:round;stroke-linejoin:round;" /><path d="M 504.0,-18.0 L 478.8,-18.0" style="stroke:black;fill:none;stroke-width:2.0;stroke-dasharray:-;stroke-linecap:round;stroke-linejoin:round;" /><path d="M 504.0,-72.0 L 478.8,-72.0" style="stroke:black;fill:none;stroke-width:2.0;stroke-dasharray:-;stroke-linecap:round;stroke-linejoin:round;" /><path d="M 612.0,-45.0 L 637.1999999999999,-45.0" style="stroke:black;fill:none;stroke-width:2.0;stroke-dasharray:-;stroke-linecap:round;stroke-linejoin:round;" /><path d="M 478.8,-18.0 L 469.8,-18.0 L 460.8,-18.000000000000004" style="stroke:black;fill:none;stroke-width:2.0;stroke-dasharray:-;stroke-linecap:round;stroke-linejoin:round;" /><path d="M 478.8,-72.0 L 469.8,-72.0 L 460.8,-72.0" style="stroke:black;fill:none;stroke-width:2.0;stroke-dasharray:-;stroke-linecap:round;stroke-linejoin:round;" /><path d="M 637.1999999999999,-45.0 L 655.1999999999999,-45.0 L 673.1999999999999,-45.0" style="stroke:black;fill:none;stroke-width:2.0;stroke-dasharray:-;stroke-linecap:round;stroke-linejoin:round;" /><path d="M 673.1999999999999,-45.0 L 709.1999999999999,-45.0 L 712.1999999999999,-54.0 L 718.1999999999999,-36.0 L 724.2,-54.0 L 730.1999999999999,-36.0 L 736.1999999999999,-54.0 L 742.2,-36.0 L 745.1999999999999,-45.0 L 781.1999999999999,-45.0" style="stroke:black;fill:none;stroke-width:2.0;stroke-dasharray:-;stroke-linecap:round;stroke-linejoin:round;" /><path d="M 781.1999999999999,-45.0 L 781.1999999999999,-9.0 L 790.1999999999999,-6.000000000000003 L 772.1999999999999,-0.0 L 790.1999999999999,5.999999999999995 L 772.1999999999999,11.999999999999996 L 790.1999999999999,18.0 L 772.1999999999999,23.999999999999993 L 781.1999999999999,27.0 L 781.1999999999999,63.0" style="stroke:black;fill:none;stroke-width:2.0;stroke-dasharray:-;stroke-linecap:round;stroke-linejoin:round;" /><path d="M 781.1999999999999,63.0 L 781.1999999999999,77.39999999999999 L 772.1999999999999,77.39999999999999 L 790.1999999999999,77.39999999999999 M 774.9,81.72 L 787.5,81.72 M 779.4,86.04 L 783.0,86.04" style="stroke:black;fill:none;stroke-width:2.0;stroke-dasharray:-;stroke-linecap:round;stroke-linejoin:round;" /><path d="M 781.1999999999999,-45.0 L 817.1999999999999,-45.0 L 853.1999999999999,-45.0" style="stroke:black;fill:none;stroke-width:2.0;stroke-dasharray:-;stroke-linecap:round;stroke-linejoin:round;" /><path d="M 864.0,-0.0 L 972.0,-0.0 L 972.0,-90.0 L 864.0,-90.0 L 864.0,-0.0" style="stroke:black;fill:none;stroke-width:2.0;stroke-dasharray:-;stroke-linecap:round;stroke-linejoin:round;" /><path d="M 864.0,-18.0 L 838.8000000000001,-18.0" style="stroke:black;fill:none;stroke-width:2.0;stroke-dasharray:-;stroke-linecap:round;stroke-linejoin:round;" /><path d="M 864.0,-72.0 L 838.8000000000001,-72.0" style="stroke:black;fill:none;stroke-width:2.0;stroke-dasharray:-;stroke-linecap:round;stroke-linejoin:round;" /><path d="M 972.0,-45.0 L 997.1999999999999,-45.0" style="stroke:black;fill:none;stroke-width:2.0;stroke-dasharray:-;stroke-linecap:round;stroke-linejoin:round;" /><path d="M 838.8000000000001,-18.0 L 829.8000000000001,-18.0 L 820.8000000000001,-18.000000000000004" style="stroke:black;fill:none;stroke-width:2.0;stroke-dasharray:-;stroke-linecap:round;stroke-linejoin:round;" /><path d="M 838.8000000000001,-72.0 L 829.8000000000001,-72.0 L 820.8000000000001,-72.0" style="stroke:black;fill:none;stroke-width:2.0;stroke-dasharray:-;stroke-linecap:round;stroke-linejoin:round;" /><path d="M 997.1999999999999,-45.0 L 1015.1999999999999,-45.0 L 1033.2,-45.0" style="stroke:black;fill:none;stroke-width:2.0;stroke-dasharray:-;stroke-linecap:round;stroke-linejoin:round;" /><path d="M 1033.2,-45.0 L 1069.2,-45.0 L 1072.1999999999998,-54.0 L 1078.2,-36.0 L 1084.2,-54.0 L 1090.1999999999998,-36.0 L 1096.2,-54.0 L 1102.2,-36.0 L 1105.2,-45.0 L 1141.2,-45.0" style="stroke:black;fill:none;stroke-width:2.0;stroke-dasharray:-;stroke-linecap:round;stroke-linejoin:round;" /><path d="M 1141.2,-45.0 L 1141.2,-9.0 L 1150.2,-6.000000000000003 L 1132.2,-0.0 L 1150.2,5.999999999999995 L 1132.2,11.999999999999996 L 1150.2,18.0 L 1132.2,23.999999999999993 L 1141.2,27.0 L 1141.2,63.0" style="stroke:black;fill:none;stroke-width:2.0;stroke-dasharray:-;stroke-linecap:round;stroke-linejoin:round;" /><path d="M 1141.2,63.0 L 1141.2,77.39999999999999 L 1132.2,77.39999999999999 L 1150.2,77.39999999999999 M 1134.8999999999999,81.72 L 1147.5,81.72 M 1139.3999999999999,86.04 L 1143.0,86.04" style="stroke:black;fill:none;stroke-width:2.0;stroke-dasharray:-;stroke-linecap:round;stroke-linejoin:round;" /><path d="M 1141.2,-45.0 L 1177.2,-45.0 L 1213.2,-45.0" style="stroke:black;fill:none;stroke-width:2.0;stroke-dasharray:-;stroke-linecap:round;stroke-linejoin:round;" /><text x="54.0" y="-263.1" dominant-baseline="ideographic" fill="black" font-size="10" font-family="sans" text-anchor="middle"><tspan x="54.0" dy="10">BT1</tspan><tspan x="54.0" dy="10">4×1.2V</tspan><tspan x="54.0" dy="10">(4.8V)</tspan></text><text x="140.4" y="-247.6" dominant-baseline="ideographic" fill="red" font-size="10" font-family="sans" text-anchor="middle"><tspan x="140.4" dy="10">+4.8V</tspan></text><text x="257.40000000000003" y="-275.0" dominant-baseline="central" fill="black" font-size="14" font-family="sans" text-anchor="start"><tspan x="257.40000000000003" dy="14">VIN</tspan></text><text x="257.40000000000003" y="-329.0" dominant-baseline="central" fill="black" font-size="14" font-family="sans" text-anchor="start"><tspan x="257.40000000000003" dy="14">3V3</tspan></text><text x="257.40000000000003" y="-383.0" dominant-baseline="central" fill="black" font-size="14" font-family="sans" text-anchor="start"><tspan x="257.40000000000003" dy="14">GND</tspan></text><text x="401.25600000000003" y="-248.0" dominant-baseline="central" fill="black" font-size="14" font-family="sans" text-anchor="end"><tspan x="401.25600000000003" dy="14">GPIO25</tspan></text><text x="401.25600000000003" y="-302.0" dominant-baseline="central" fill="black" font-size="14" font-family="sans" text-anchor="end"><tspan x="401.25600000000003" dy="14">GPIO27</tspan></text><text x="401.25600000000003" y="-356.0" dominant-baseline="central" fill="black" font-size="14" font-family="sans" text-anchor="end"><tspan x="401.25600000000003" dy="14">GPIO34 (ADC6)</tspan></text><text x="401.25600000000003" y="-410.0" dominant-baseline="central" fill="black" font-size="14" font-family="sans" text-anchor="end"><tspan x="401.25600000000003" dy="14">GPIO35 (ADC7)</tspan></text><text x="329.328" y="-428.59999999999997" dominant-baseline="ideographic" fill="black" font-size="11" font-family="sans" text-anchor="middle"><tspan x="329.328" dy="11">ESP32-WROOM-32</tspan></text><text x="158.4" y="-267.40000000000003" dominant-baseline="central" fill="red" font-size="10" font-family="sans" text-anchor="end"><tspan x="158.4" dy="10">+4.8V</tspan></text><text x="158.4" y="-321.40000000000003" dominant-baseline="central" fill="red" font-size="10" font-family="sans" text-anchor="end"><tspan x="158.4" dy="10">+3.3V</tspan></text><text x="532.656" y="-320.59999999999997" dominant-baseline="ideographic" fill="black" font-size="10" font-family="sans" text-anchor="middle"><tspan x="532.656" dy="10">R6</tspan><tspan x="532.656" dy="10">1kΩ</tspan></text><text x="617.316" y="-302.7" dominant-baseline="central" fill="black" font-size="10" font-family="sans" text-anchor="start"><tspan x="617.316" dy="10">Q1</tspan><tspan x="617.316" dy="10">2N2222</tspan></text><text x="610.1159999999999" y="-380.68" dominant-baseline="ideographic" fill="blue" font-size="10" font-family="sans" text-anchor="middle"><tspan x="610.1159999999999" dy="10">SENSOR_GND</tspan></text><text x="149.4" y="-32.0" dominant-baseline="central" fill="black" font-size="14" font-family="sans" text-anchor="start"><tspan x="149.4" dy="14">VCC</tspan></text><text x="149.4" y="-86.0" dominant-baseline="central" fill="black" font-size="14" font-family="sans" text-anchor="start"><tspan x="149.4" dy="14">GND</tspan></text><text x="246.6" y="-59.0" dominant-baseline="central" fill="black" font-size="14" font-family="sans" text-anchor="end"><tspan x="246.6" dy="14">DATA</tspan></text><text x="201.6" y="-60.6" dominant-baseline="central" fill="black" font-size="12" font-family="sans" text-anchor="middle"><tspan x="201.6" dy="12">DHT11</tspan></text><text x="97.19999999999999" y="-24.400000000000006" dominant-baseline="central" fill="red" font-size="10" font-family="sans" text-anchor="end"><tspan x="97.19999999999999" dy="10">+3.3V</tspan></text><text x="97.19999999999999" y="-78.39999999999999" dominant-baseline="central" fill="blue" font-size="10" font-family="sans" text-anchor="end"><tspan x="97.19999999999999" dy="10">SENSOR_GND</tspan></text><text x="331.2" y="-51.4" dominant-baseline="hanging" fill="black" font-size="10" font-family="sans" text-anchor="middle"><tspan x="331.2" dy="10">R1  5kΩ</tspan></text><text x="327.59999999999997" y="-184.6" dominant-baseline="ideographic" fill="red" font-size="10" font-family="sans" text-anchor="middle"><tspan x="327.59999999999997" dy="10">+3.3V</tspan></text><text x="406.79999999999995" y="-58.6" dominant-baseline="central" fill="blue" font-size="10" font-family="sans" text-anchor="start"><tspan x="406.79999999999995" dy="10">GPIO25</tspan></text><text x="509.40000000000003" y="-32.0" dominant-baseline="central" fill="black" font-size="14" font-family="sans" text-anchor="start"><tspan x="509.40000000000003" dy="14">VCC</tspan></text><text x="509.40000000000003" y="-86.0" dominant-baseline="central" fill="black" font-size="14" font-family="sans" text-anchor="start"><tspan x="509.40000000000003" dy="14">GND</tspan></text><text x="606.6" y="-59.0" dominant-baseline="central" fill="black" font-size="14" font-family="sans" text-anchor="end"><tspan x="606.6" dy="14">AOUT</tspan></text><text x="561.6" y="-60.6" dominant-baseline="central" fill="black" font-size="12" font-family="sans" text-anchor="middle"><tspan x="561.6" dy="12">MQ-4</tspan></text><text x="457.20000000000005" y="-24.400000000000006" dominant-baseline="central" fill="red" font-size="10" font-family="sans" text-anchor="end"><tspan x="457.20000000000005" dy="10">ESP32 VIN</tspan></text><text x="457.20000000000005" y="-78.39999999999999" dominant-baseline="central" fill="blue" font-size="10" font-family="sans" text-anchor="end"><tspan x="457.20000000000005" dy="10">SENSOR_GND</tspan></text><text x="727.1999999999999" y="-77.6" dominant-baseline="ideographic" fill="black" font-size="10" font-family="sans" text-anchor="middle"><tspan x="727.1999999999999" dy="10">R2</tspan><tspan x="727.1999999999999" dy="10">10kΩ</tspan></text><text x="781.1999999999999" y="-68.6" dominant-baseline="ideographic" fill="black" font-size="10" font-family="sans" text-anchor="middle"><tspan x="781.1999999999999" dy="10">R3</tspan><tspan x="781.1999999999999" dy="10">20kΩ</tspan></text><text x="856.8000000000001" y="-58.6" dominant-baseline="central" fill="blue" font-size="10" font-family="sans" text-anchor="start"><tspan x="856.8000000000001" dy="10">GPIO34 (ADC CH6)</tspan></text><text x="869.4" y="-32.0" dominant-baseline="central" fill="black" font-size="14" font-family="sans" text-anchor="start"><tspan x="869.4" dy="14">VCC</tspan></text><text x="869.4" y="-86.0" dominant-baseline="central" fill="black" font-size="14" font-family="sans" text-anchor="start"><tspan x="869.4" dy="14">GND</tspan></text><text x="966.6" y="-59.0" dominant-baseline="central" fill="black" font-size="14" font-family="sans" text-anchor="end"><tspan x="966.6" dy="14">AOUT</tspan></text><text x="921.6" y="-60.6" dominant-baseline="central" fill="black" font-size="12" font-family="sans" text-anchor="middle"><tspan x="921.6" dy="12">MQ-135</tspan></text><text x="817.1999999999999" y="-24.400000000000006" dominant-baseline="central" fill="red" font-size="10" font-family="sans" text-anchor="end"><tspan x="817.1999999999999" dy="10">ESP32 VIN</tspan></text><text x="817.1999999999999" y="-78.39999999999999" dominant-baseline="central" fill="blue" font-size="10" font-family="sans" text-anchor="end"><tspan x="817.1999999999999" dy="10">SENSOR_GND</tspan></text><text x="1087.2" y="-77.6" dominant-baseline="ideographic" fill="black" font-size="10" font-family="sans" text-anchor="middle"><tspan x="1087.2" dy="10">R4</tspan><tspan x="1087.2" dy="10">10kΩ</tspan></text><text x="1141.2" y="-68.6" dominant-baseline="ideographic" fill="black" font-size="10" font-family="sans" text-anchor="middle"><tspan x="1141.2" dy="10">R5</tspan><tspan x="1141.2" dy="10">20kΩ</tspan></text><text x="1216.8000000000002" y="-58.6" dominant-baseline="central" fill="blue" font-size="10" font-family="sans" text-anchor="start"><tspan x="1216.8000000000002" dy="10">GPIO35 (ADC CH7)</tspan></text><circle cx="144.0" cy="-216.0" r="2.6999999999999997" style="stroke:black;fill:black;stroke-width:2.0;stroke-dasharray:-;" /><circle cx="331.2" cy="-45.0" r="2.6999999999999997" style="stroke:black;fill:black;stroke-width:2.0;stroke-dasharray:-;" /><circle cx="781.1999999999999" cy="-45.0" r="2.6999999999999997" style="stroke:black;fill:black;stroke-width:2.0;stroke-dasharray:-;" /><circle cx="1141.2" cy="-45.0" r="2.6999999999999997" style="stroke:black;fill:black;stroke-width:2.0;stroke-dasharray:-;" /></svg>