<?xml version="1.0" encoding="UTF-8"?>
<svg xmlns="http://www.w3.org/2000/svg" viewBox="0 0 1400 900"
     width="1400" height="900" style="background:#ffffff">
  <defs>
    <style>
      text { font-family: 'Segoe UI', 'Helvetica Neue', Arial, sans-serif; }
    </style>
  </defs>
<text x="700.0" y="35" font-size="22" fill="#1a237e" text-anchor="middle" font-weight="bold" font-family="sans-serif" dominant-baseline="central">Greenhouse Monitor — Circuit Schematic</text>
<text x="700.0" y="58" font-size="12" fill="#616161" text-anchor="middle" font-weight="normal" font-family="sans-serif" dominant-baseline="central">ESP-WROOM-32  |  DHT11  |  MQ-4  |  MQ-135  |  2N2222  |  4×1.2 V Battery</text>
<rect x="440" y="110" width="200" height="280" rx="8" fill="#e8eaf6" stroke="#283593" stroke-width="2.5"/>
<text x="540.0" y="130" font-size="15" fill="#283593" text-anchor="middle" font-weight="bold" font-family="sans-serif" dominant-baseline="central">ESP-WROOM-32</text>
<line x1="440" y1="180" x2="415" y2="180" stroke="#222222" stroke-width="2" stroke-linecap="round"/>
<circle cx="415" cy="180" r="3" fill="#283593" stroke="none"/>
<text x="450" y="180" font-size="12" fill="#283593" text-anchor="start" font-weight="bold" font-family="sans-serif" dominant-baseline="central">VIN</text>
<line x1="440" y1="230" x2="415" y2="230" stroke="#222222" stroke-width="2" stroke-linecap="round"/>
<circle cx="415" cy="230" r="3" fill="#283593" stroke="none"/>
<text x="450" y="230" font-size="12" fill="#283593" text-anchor="start" font-weight="bold" font-family="sans-serif" dominant-baseline="central">3V3</text>
<line x1="440" y1="280" x2="415" y2="280" stroke="#222222" stroke-width="2" stroke-linecap="round"/>
<circle cx="415" cy="280" r="3" fill="#283593" stroke="none"/>
<text x="450" y="280" font-size="12" fill="#283593" text-anchor="start" font-weight="bold" font-family="sans-serif" dominant-baseline="central">GND</text>
<line x1="440" y1="340" x2="415" y2="340" stroke="#222222" stroke-width="2" stroke-linecap="round"/>
<circle cx="415" cy="340" r="3" fill="#283593" stroke="none"/>
<text x="450" y="340" font-size="12" fill="#283593" text-anchor="start" font-weight="bold" font-family="sans-serif" dominant-baseline="central">GPIO27</text>
<line x1="640" y1="180" x2="665" y2="180" stroke="#222222" stroke-width="2" stroke-linecap="round"/>
<circle cx="665" cy="180" r="3" fill="#283593" stroke="none"/>
<text x="630" y="180" font-size="12" fill="#283593" text-anchor="end" font-weight="bold" font-family="sans-serif" dominant-baseline="central">GPIO25</text>
<line x1="640" y1="250" x2="665" y2="250" stroke="#222222" stroke-width="2" stroke-linecap="round"/>
<circle cx="665" cy="250" r="3" fill="#283593" stroke="none"/>
<text x="630" y="250" font-size="12" fill="#283593" text-anchor="end" font-weight="bold" font-family="sans-serif" dominant-baseline="central">GPIO34 (ADC6)</text>
<line x1="640" y1="320" x2="665" y2="320" stroke="#222222" stroke-width="2" stroke-linecap="round"/>
<circle cx="665" cy="320" r="3" fill="#283593" stroke="none"/>
<text x="630" y="320" font-size="12" fill="#283593" text-anchor="end" font-weight="bold" font-family="sans-serif" dominant-baseline="central">GPIO35 (ADC7)</text>
<rect x="820" y="80" width="120" height="100" rx="6" fill="#e8f5e9" stroke="#2e7d32" stroke-width="2"/>
<text x="880.0" y="98" font-size="14" fill="#2e7d32" text-anchor="middle" font-weight="bold" font-family="sans-serif" dominant-baseline="central">DHT11</text>
<line x1="820" y1="113.33333333333334" x2="800" y2="113.33333333333334" stroke="#222222" stroke-width="2" stroke-linecap="round"/>
<text x="828" y="113.33333333333334" font-size="11" fill="#555555" text-anchor="start" font-weight="normal" font-family="sans-serif" dominant-baseline="central">VCC</text>
<line x1="820" y1="146.66666666666669" x2="800" y2="146.66666666666669" stroke="#222222" stroke-width="2" stroke-linecap="round"/>
<text x="828" y="146.66666666666669" font-size="11" fill="#555555" text-anchor="start" font-weight="normal" font-family="sans-serif" dominant-baseline="central">GND</text>
<line x1="940" y1="130.0" x2="960" y2="130.0" stroke="#222222" stroke-width="2" stroke-linecap="round"/>
<text x="932" y="130.0" font-size="11" fill="#555555" text-anchor="end" font-weight="normal" font-family="sans-serif" dominant-baseline="central">DATA</text>
<rect x="820" y="310" width="120" height="100" rx="6" fill="#fff3e0" stroke="#e65100" stroke-width="2"/>
<text x="880.0" y="328" font-size="14" fill="#e65100" text-anchor="middle" font-weight="bold" font-family="sans-serif" dominant-baseline="central">MQ-4</text>
<line x1="820" y1="343.3333333333333" x2="800" y2="343.3333333333333" stroke="#222222" stroke-width="2" stroke-linecap="round"/>
<text x="828" y="343.3333333333333" font-size="11" fill="#555555" text-anchor="start" font-weight="normal" font-family="sans-serif" dominant-baseline="central">VCC</text>
<line x1="820" y1="376.6666666666667" x2="800" y2="376.6666666666667" stroke="#222222" stroke-width="2" stroke-linecap="round"/>
<text x="828" y="376.6666666666667" font-size="11" fill="#555555" text-anchor="start" font-weight="normal" font-family="sans-serif" dominant-baseline="central">GND</text>
<line x1="940" y1="360.0" x2="960" y2="360.0" stroke="#222222" stroke-width="2" stroke-linecap="round"/>
<text x="932" y="360.0" font-size="11" fill="#555555" text-anchor="end" font-weight="normal" font-family="sans-serif" dominant-baseline="central">AOUT</text>
<rect x="820" y="540" width="120" height="100" rx="6" fill="#fff3e0" stroke="#e65100" stroke-width="2"/>
<text x="880.0" y="558" font-size="14" fill="#e65100" text-anchor="middle" font-weight="bold" font-family="sans-serif" dominant-baseline="central">MQ-135</text>
<line x1="820" y1="573.3333333333334" x2="800" y2="573.3333333333334" stroke="#222222" stroke-width="2" stroke-linecap="round"/>
<text x="828" y="573.3333333333334" font-size="11" fill="#555555" text-anchor="start" font-weight="normal" font-family="sans-serif" dominant-baseline="central">VCC</text>
<line x1="820" y1="606.6666666666666" x2="800" y2="606.6666666666666" stroke="#222222" stroke-width="2" stroke-linecap="round"/>
<text x="828" y="606.6666666666666" font-size="11" fill="#555555" text-anchor="start" font-weight="normal" font-family="sans-serif" dominant-baseline="central">GND</text>
<line x1="940" y1="590.0" x2="960" y2="590.0" stroke="#222222" stroke-width="2" stroke-linecap="round"/>
<text x="932" y="590.0" font-size="11" fill="#555555" text-anchor="end" font-weight="normal" font-family="sans-serif" dominant-baseline="central">AOUT</text>
<line x1="150" y1="166" x2="150" y2="194" stroke="#222222" stroke-width="3" stroke-linecap="round"/>
<line x1="155" y1="172" x2="155" y2="188" stroke="#222222" stroke-width="1.5" stroke-linecap="round"/>
<line x1="168" y1="166" x2="168" y2="194" stroke="#222222" stroke-width="3" stroke-linecap="round"/>
<line x1="173" y1="172" x2="173" y2="188" stroke="#222222" stroke-width="1.5" stroke-linecap="round"/>
<line x1="186" y1="166" x2="186" y2="194" stroke="#222222" stroke-width="3" stroke-linecap="round"/>
<line x1="191" y1="172" x2="191" y2="188" stroke="#222222" stroke-width="1.5" stroke-linecap="round"/>
<line x1="204" y1="166" x2="204" y2="194" stroke="#222222" stroke-width="3" stroke-linecap="round"/>
<line x1="209" y1="172" x2="209" y2="188" stroke="#222222" stroke-width="1.5" stroke-linecap="round"/>
<line x1="130" y1="180" x2="150" y2="180" stroke="#222222" stroke-width="2" stroke-linecap="round"/>
<line x1="208" y1="180" x2="230" y2="180" stroke="#222222" stroke-width="2" stroke-linecap="round"/>
<text x="235" y="180" font-size="14" fill="#d32f2f" text-anchor="start" font-weight="bold" font-family="sans-serif" dominant-baseline="central">+</text>
<text x="125" y="180" font-size="14" fill="#1565c0" text-anchor="end" font-weight="bold" font-family="sans-serif" dominant-baseline="central">–</text>
<text x="180" y="212" font-size="11" fill="#616161" text-anchor="middle" font-weight="normal" font-family="sans-serif" dominant-baseline="central">BT1  4×1.2 V (4.8 V)</text>
<circle cx="340" cy="530" r="22" fill="#fce4ec" stroke="#880e4f" stroke-width="2"/>
<line x1="318" y1="530" x2="334" y2="530" stroke="#880e4f" stroke-width="2" stroke-linecap="round"/>
<line x1="334" y1="516" x2="334" y2="544" stroke="#880e4f" stroke-width="2.5" stroke-linecap="round"/>
<line x1="334" y1="522" x2="352" y2="512" stroke="#880e4f" stroke-width="2" stroke-linecap="round"/>
<line x1="334" y1="538" x2="352" y2="548" stroke="#880e4f" stroke-width="2" stroke-linecap="round"/>
<polygon points="352,548 344,545 348,540" fill="#880e4f"/>
<line x1="318" y1="530" x2="303" y2="530" stroke="#222222" stroke-width="2" stroke-linecap="round"/>
<line x1="352" y1="512" x2="352" y2="492" stroke="#222222" stroke-width="2" stroke-linecap="round"/>
<line x1="352" y1="548" x2="352" y2="568" stroke="#222222" stroke-width="2" stroke-linecap="round"/>
<text x="370" y="524" font-size="12" fill="#880e4f" text-anchor="start" font-weight="bold" font-family="sans-serif" dominant-baseline="central">Q1</text>
<text x="370" y="538" font-size="10" fill="#616161" text-anchor="start" font-weight="normal" font-family="sans-serif" dominant-baseline="central">2N2222</text>
<text x="300" y="520" font-size="9" fill="#555555" text-anchor="end" font-weight="normal" font-family="sans-serif" dominant-baseline="central">B</text>
<text x="358" y="496" font-size="9" fill="#555555" text-anchor="start" font-weight="normal" font-family="sans-serif" dominant-baseline="central">C</text>
<text x="358" y="564" font-size="9" fill="#555555" text-anchor="start" font-weight="normal" font-family="sans-serif" dominant-baseline="central">E</text>
<polyline points="1010,35 1010,55 1018,58.333333333333336 1002,65.0 1018,71.66666666666666 1002,78.33333333333331 1018,84.99999999999997 1002,91.66666666666663 1010,94.99999999999996 1010,115" fill="none" stroke="#795548" stroke-width="2" stroke-linecap="round" stroke-linejoin="round"/>
<text x="1032" y="67.0" font-size="11" fill="#795548" text-anchor="middle" font-weight="bold" font-family="sans-serif" dominant-baseline="central">R1</text>
<text x="1032" y="83.0" font-size="10" fill="#616161" text-anchor="middle" font-weight="normal" font-family="sans-serif" dominant-baseline="central">5 kΩ</text>
<line x1="1010" y1="35" x2="1010" y2="17" stroke="#d32f2f" stroke-width="2" stroke-linecap="round"/>
<polygon points="1010,13 1005,21 1015,21" fill="#d32f2f"/>
<text x="1010" y="5" font-size="10" fill="#d32f2f" text-anchor="middle" font-weight="bold" font-family="sans-serif" dominant-baseline="central">+3.3 V</text>
<polyline points="200,340 220,340 223.33333333333334,348 230.00000000000003,332 236.6666666666667,348 243.3333333333334,332 250.00000000000009,348 256.66666666666674,332 260.00000000000006,340 280,340" fill="none" stroke="#795548" stroke-width="2" stroke-linecap="round" stroke-linejoin="round"/>
<text x="240.0" y="324" font-size="11" fill="#795548" text-anchor="middle" font-weight="bold" font-family="sans-serif" dominant-baseline="central">R6</text>
<text x="240.0" y="358" font-size="10" fill="#616161" text-anchor="middle" font-weight="normal" font-family="sans-serif" dominant-baseline="central">1 kΩ</text>
<polyline points="960,360 980,360 984.1666666666666,368 992.4999999999999,352 1000.8333333333331,368 1009.1666666666664,352 1017.4999999999997,368 1025.833333333333,352 1029.9999999999998,360 1050,360" fill="none" stroke="#795548" stroke-width="2" stroke-linecap="round" stroke-linejoin="round"/>
<text x="1005.0" y="344" font-size="11" fill="#795548" text-anchor="middle" font-weight="bold" font-family="sans-serif" dominant-baseline="central">R2</text>
<text x="1005.0" y="378" font-size="10" fill="#616161" text-anchor="middle" font-weight="normal" font-family="sans-serif" dominant-baseline="central">10 kΩ</text>
<polyline points="1050,360 1050,380 1058,384.1666666666667 1042,392.50000000000006 1058,400.8333333333334 1042,409.1666666666668 1058,417.50000000000017 1042,425.83333333333354 1050,430.0000000000002 1050,450" fill="none" stroke="#795548" stroke-width="2" stroke-linecap="round" stroke-linejoin="round"/>
<text x="1072" y="397.0" font-size="11" fill="#795548" text-anchor="middle" font-weight="bold" font-family="sans-serif" dominant-baseline="central">R3</text>
<text x="1072" y="413.0" font-size="10" fill="#616161" text-anchor="middle" font-weight="normal" font-family="sans-serif" dominant-baseline="central">20 kΩ</text>
<polyline points="960,590 980,590 984.1666666666666,598 992.4999999999999,582 1000.8333333333331,598 1009.1666666666664,582 1017.4999999999997,598 1025.833333333333,582 1029.9999999999998,590 1050,590" fill="none" stroke="#795548" stroke-width="2" stroke-linecap="round" stroke-linejoin="round"/>
<text x="1005.0" y="574" font-size="11" fill="#795548" text-anchor="middle" font-weight="bold" font-family="sans-serif" dominant-baseline="central">R4</text>
<text x="1005.0" y="608" font-size="10" fill="#616161" text-anchor="middle" font-weight="normal" font-family="sans-serif" dominant-baseline="central">10 kΩ</text>
<polyline points="1050,590 1050,610 1058,614.1666666666666 1042,622.4999999999999 1058,630.8333333333331 1042,639.1666666666664 1058,647.4999999999997 1042,655.8333333333329 1050,659.9999999999995 1050,680" fill="none" stroke="#795548" stroke-width="2" stroke-linecap="round" stroke-linejoin="round"/>
<text x="1072" y="627.0" font-size="11" fill="#795548" text-anchor="middle" font-weight="bold" font-family="sans-serif" dominant-baseline="central">R5</text>
<text x="1072" y="643.0" font-size="10" fill="#616161" text-anchor="middle" font-weight="normal" font-family="sans-serif" dominant-baseline="central">20 kΩ</text>
<polyline points="230,180 260,180 260,180 415,180" fill="none" stroke="#d32f2f" stroke-width="2" stroke-linecap="round" stroke-linejoin="round"/>
<polyline points="130,180 130,230" fill="none" stroke="#1565c0" stroke-width="2" stroke-linecap="round" stroke-linejoin="round"/>
<line x1="130" y1="230" x2="130" y2="240" stroke="#1565c0" stroke-width="2" stroke-linecap="round"/>
<line x1="118" y1="240" x2="142" y2="240" stroke="#1565c0" stroke-width="2.5" stroke-linecap="round"/>
<line x1="123" y1="245" x2="137" y2="245" stroke="#1565c0" stroke-width="2" stroke-linecap="round"/>
<line x1="127" y1="250" x2="133" y2="250" stroke="#1565c0" stroke-width="1.5" stroke-linecap="round"/>
<text x="130" y="263" font-size="10" fill="#1565c0" text-anchor="middle" font-weight="bold" font-family="sans-serif" dominant-baseline="central">GND</text>
<line x1="380" y1="230" x2="380" y2="212" stroke="#d32f2f" stroke-width="2" stroke-linecap="round"/>
<polygon points="380,208 375,216 385,216" fill="#d32f2f"/>
<text x="380" y="200" font-size="10" fill="#d32f2f" text-anchor="middle" font-weight="bold" font-family="sans-serif" dominant-baseline="central">+3.3 V</text>
<line x1="380" y1="230" x2="415" y2="230" stroke="#d32f2f" stroke-width="2" stroke-linecap="round"/>
<polyline points="415,280 380,280 380,310" fill="none" stroke="#1565c0" stroke-width="2" stroke-linecap="round" stroke-linejoin="round"/>
<line x1="380" y1="310" x2="380" y2="320" stroke="#1565c0" stroke-width="2" stroke-linecap="round"/>
<line x1="368" y1="320" x2="392" y2="320" stroke="#1565c0" stroke-width="2.5" stroke-linecap="round"/>
<line x1="373" y1="325" x2="387" y2="325" stroke="#1565c0" stroke-width="2" stroke-linecap="round"/>
<line x1="377" y1="330" x2="383" y2="330" stroke="#1565c0" stroke-width="1.5" stroke-linecap="round"/>
<line x1="415" y1="340" x2="280" y2="340" stroke="#222222" stroke-width="2" stroke-linecap="round"/>
<polyline points="200,340 160,340 160,530 303,530" fill="none" stroke="#222222" stroke-width="2" stroke-linecap="round" stroke-linejoin="round"/>
<text x="357" y="480" font-size="10" fill="#0d47a1" text-anchor="start" font-weight="bold" font-family="sans-serif" dominant-baseline="central">SENSOR_GND</text>
<line x1="352" y1="568" x2="352" y2="578" stroke="#1565c0" stroke-width="2" stroke-linecap="round"/>
<line x1="340" y1="578" x2="364" y2="578" stroke="#1565c0" stroke-width="2.5" stroke-linecap="round"/>
<line x1="345" y1="583" x2="359" y2="583" stroke="#1565c0" stroke-width="2" stroke-linecap="round"/>
<line x1="349" y1="588" x2="355" y2="588" stroke="#1565c0" stroke-width="1.5" stroke-linecap="round"/>
<text x="352" y="601" font-size="10" fill="#1565c0" text-anchor="middle" font-weight="bold" font-family="sans-serif" dominant-baseline="central">GND</text>
<line x1="770" y1="113.33333333333334" x2="770" y2="95.33333333333334" stroke="#d32f2f" stroke-width="2" stroke-linecap="round"/>
<polygon points="770,91.33333333333334 765,99.33333333333334 775,99.33333333333334" fill="#d32f2f"/>
<text x="770" y="83.33333333333334" font-size="10" fill="#d32f2f" text-anchor="middle" font-weight="bold" font-family="sans-serif" dominant-baseline="central">+3.3 V</text>
<line x1="770" y1="113.33333333333334" x2="800" y2="113.33333333333334" stroke="#d32f2f" stroke-width="2" stroke-linecap="round"/>
<polyline points="800,146.66666666666669 760,146.66666666666669 760,480" fill="none" stroke="#0d47a1" stroke-width="2" stroke-linecap="round" stroke-linejoin="round"/>
<line x1="1010" y1="115" x2="1010" y2="130" stroke="#222222" stroke-width="2" stroke-linecap="round"/>
<circle cx="1010" cy="130" r="3.5" fill="#222222" stroke="none"/>
<line x1="960" y1="130" x2="1010" y2="130" stroke="#222222" stroke-width="2" stroke-linecap="round"/>
<polyline points="1010,130 1070,130 1070,180 665,180" fill="none" stroke="#222222" stroke-width="2" stroke-linecap="round" stroke-linejoin="round"/>
<text x="1078" y="155.0" font-size="10" fill="#555555" text-anchor="start" font-weight="normal" font-family="sans-serif" dominant-baseline="central">GPIO25</text>
<line x1="770" y1="343.3333333333333" x2="770" y2="325.3333333333333" stroke="#d32f2f" stroke-width="2" stroke-linecap="round"/>
<polygon points="770,321.3333333333333 765,329.3333333333333 775,329.3333333333333" fill="#d32f2f"/>
<text x="770" y="313.3333333333333" font-size="10" fill="#d32f2f" text-anchor="middle" font-weight="bold" font-family="sans-serif" dominant-baseline="central">+4.8 V</text>
<line x1="770" y1="343.3333333333333" x2="800" y2="343.3333333333333" stroke="#d32f2f" stroke-width="2" stroke-linecap="round"/>
<polyline points="800,376.6666666666667 760,376.6666666666667 760,480" fill="none" stroke="#0d47a1" stroke-width="2" stroke-linecap="round" stroke-linejoin="round"/>
<line x1="960" y1="360" x2="960" y2="360" stroke="#222222" stroke-width="2" stroke-linecap="round"/>
<circle cx="1050" cy="360" r="3.5" fill="#222222" stroke="none"/>
<polyline points="1050,450 1050,460" fill="none" stroke="#0d47a1" stroke-width="2" stroke-linecap="round" stroke-linejoin="round"/>
<line x1="1050" y1="460" x2="1050" y2="470" stroke="#0d47a1" stroke-width="2" stroke-linecap="round"/>
<line x1="1038" y1="470" x2="1062" y2="470" stroke="#0d47a1" stroke-width="2.5" stroke-linecap="round"/>
<line x1="1043" y1="475" x2="1057" y2="475" stroke="#0d47a1" stroke-width="2" stroke-linecap="round"/>
<line x1="1047" y1="480" x2="1053" y2="480" stroke="#0d47a1" stroke-width="1.5" stroke-linecap="round"/>
<text x="1050" y="493" font-size="10" fill="#0d47a1" text-anchor="middle" font-weight="bold" font-family="sans-serif" dominant-baseline="central">SENSOR_GND</text>
<polyline points="1050,360 1100,360 1100,250 665,250" fill="none" stroke="#222222" stroke-width="2" stroke-linecap="round" stroke-linejoin="round"/>
<text x="1108" y="305.0" font-size="10" fill="#555555" text-anchor="start" font-weight="normal" font-family="sans-serif" dominant-baseline="central">GPIO34</text>
<line x1="770" y1="573.3333333333334" x2="770" y2="555.3333333333334" stroke="#d32f2f" stroke-width="2" stroke-linecap="round"/>
<polygon points="770,551.3333333333334 765,559.3333333333334 775,559.3333333333334" fill="#d32f2f"/>
<text x="770" y="543.3333333333334" font-size="10" fill="#d32f2f" text-anchor="middle" font-weight="bold" font-family="sans-serif" dominant-baseline="central">+4.8 V</text>
<line x1="770" y1="573.3333333333334" x2="800" y2="573.3333333333334" stroke="#d32f2f" stroke-width="2" stroke-linecap="round"/>
<polyline points="800,606.6666666666666 760,606.6666666666666 760,480" fill="none" stroke="#0d47a1" stroke-width="2" stroke-linecap="round" stroke-linejoin="round"/>
<line x1="960" y1="590" x2="960" y2="590" stroke="#222222" stroke-width="2" stroke-linecap="round"/>
<circle cx="1050" cy="590" r="3.5" fill="#222222" stroke="none"/>
<polyline points="1050,680 1050,690" fill="none" stroke="#0d47a1" stroke-width="2" stroke-linecap="round" stroke-linejoin="round"/>
<line x1="1050" y1="690" x2="1050" y2="700" stroke="#0d47a1" stroke-width="2" stroke-linecap="round"/>
<line x1="1038" y1="700" x2="1062" y2="700" stroke="#0d47a1" stroke-width="2.5" stroke-linecap="round"/>
<line x1="1043" y1="705" x2="1057" y2="705" stroke="#0d47a1" stroke-width="2" stroke-linecap="round"/>
<line x1="1047" y1="710" x2="1053" y2="710" stroke="#0d47a1" stroke-width="1.5" stroke-linecap="round"/>
<text x="1050" y="723" font-size="10" fill="#0d47a1" text-anchor="middle" font-weight="bold" font-family="sans-serif" dominant-baseline="central">SENSOR_GND</text>
<polyline points="1050,590 1130,590 1130,320 665,320" fill="none" stroke="#222222" stroke-width="2" stroke-linecap="round" stroke-linejoin="round"/>
<text x="1138" y="455.0" font-size="10" fill="#555555" text-anchor="start" font-weight="normal" font-family="sans-serif" dominant-baseline="central">GPIO35</text>
<line x1="750" y1="480" x2="770" y2="480" stroke="#0d47a1" stroke-width="2.5" stroke-linecap="round"/>
<circle cx="760" cy="480" r="3.5" fill="#222222" stroke="none"/>
<circle cx="760" cy="480" r="3.5" fill="#222222" stroke="none"/>
<circle cx="760" cy="480" r="3.5" fill="#222222" stroke="none"/>
<text x="760.0" y="496" font-size="10" fill="#0d47a1" text-anchor="middle" font-weight="bold" font-family="sans-serif" dominant-baseline="central">SENSOR_GND bus</text>
<polyline points="760.0,480 760.0,510 352,510 352,492" fill="none" stroke="#0d47a1" stroke-width="2" stroke-linecap="round" stroke-linejoin="round"/>
<circle cx="760.0" cy="480" r="3.5" fill="#222222" stroke="none"/>
<rect x="50" y="780" width="500" height="90" rx="8" fill="#fafafa" stroke="#ccc" stroke-width="1"/>
<text x="300" y="798" font-size="13" fill="#1a237e" text-anchor="middle" font-weight="bold" font-family="sans-serif" dominant-baseline="central">Notes</text>
<text x="65" y="818" font-size="10" fill="#616161" text-anchor="start" font-weight="normal" font-family="sans-serif" dominant-baseline="central">• Voltage dividers (R2/R3, R4/R5) scale 5 V sensor output to ≤3.3 V for ESP32 ADC</text>
<text x="65" y="833" font-size="10" fill="#616161" text-anchor="start" font-weight="normal" font-family="sans-serif" dominant-baseline="central">• Q1 (2N2222) disconnects all sensors from GND during deep sleep to save power</text>
<text x="65" y="848" font-size="10" fill="#616161" text-anchor="start" font-weight="normal" font-family="sans-serif" dominant-baseline="central">• R1 is a pull-up resistor for the DHT11 one-wire DATA line</text>
<text x="65" y="863" font-size="10" fill="#616161" text-anchor="start" font-weight="normal" font-family="sans-serif" dominant-baseline="central">• Deep sleep: 30 min  |  Warmup: 3 min  |  Protocol: HMAC-SHA256 authenticated TCP</text>
</svg>